<svg xmlns="http://www.w3.org/2000/svg" xmlns:xlink="http://www.w3.org/1999/xlink" width="500" zoomAndPan="magnify" viewBox="0 0 375 374.999991" height="500" preserveAspectRatio="xMidYMid meet" version="1.0"><path fill="#0a0237" d="M 237.128906 312.492188 C 225.582031 312.492188 216.1875 303.097656 216.1875 291.550781 C 216.1875 280.003906 225.582031 270.609375 237.128906 270.609375 C 248.675781 270.609375 258.070312 280.003906 258.070312 291.550781 C 258.070312 303.097656 248.675781 312.492188 237.128906 312.492188 Z M 237.128906 284.570312 C 233.28125 284.570312 230.148438 287.703125 230.148438 291.550781 C 230.148438 295.398438 233.28125 298.53125 237.128906 298.53125 C 240.976562 298.53125 244.109375 295.398438 244.109375 291.550781 C 244.109375 287.703125 240.976562 284.570312 237.128906 284.570312 Z M 237.128906 284.570312 " fill-opacity="1" fill-rule="nonzero"/><path fill="#0a0237" d="M 282.378906 62.5 C 266.367188 23.960938 228.574219 -0.941406 186.089844 -0.941406 C 133.25 -0.941406 88.863281 37.800781 82.816406 88.917969 C 45.445312 81.40625 9.957031 106.859375 5.160156 142.988281 C 0.347656 179.214844 26.320312 210.257812 61.089844 214.832031 L 61.089844 294.738281 C 61.089844 305.621094 69.792969 314.476562 80.492188 314.476562 L 191.324219 314.476562 L 176.347656 341.226562 C 172.59375 347.960938 177.886719 355.753906 185.058594 354.664062 L 200.554688 352.382812 L 206.445312 367.53125 C 209.183594 374.539062 218.703125 374.988281 222.46875 368.261719 L 237.125 342.054688 L 251.78125 368.257812 C 255.554688 375.007812 265.085938 374.523438 267.808594 367.523438 L 273.695312 352.382812 L 289.179688 354.664062 C 296.382812 355.769531 301.664062 347.9375 297.898438 341.222656 L 282.964844 314.476562 L 291.683594 314.476562 C 302.382812 314.476562 311.089844 305.621094 311.089844 294.738281 L 311.089844 212.058594 C 340.375 203.519531 361.890625 180.242188 366.570312 151.425781 C 373.851562 106.558594 340.972656 60.628906 282.378906 62.5 Z M 237.128906 322.59375 C 220.007812 322.59375 206.085938 308.667969 206.085938 291.550781 C 206.085938 274.4375 220.007812 260.511719 237.128906 260.511719 C 254.246094 260.511719 268.167969 274.4375 268.167969 291.550781 C 268.167969 308.667969 254.246094 322.59375 237.128906 322.59375 Z M 215.460938 352.1875 C 209.195312 336.085938 209.976562 336.882812 193.414062 339.320312 L 203.484375 321.339844 C 209.175781 327.757812 216.648438 332.53125 225.136719 334.882812 Z M 258.792969 352.1875 L 249.117188 334.882812 C 257.621094 332.527344 265.101562 327.742188 270.796875 321.3125 L 280.855469 339.324219 C 263.894531 336.828125 264.921875 336.425781 258.792969 352.1875 Z M 291.6875 300.515625 L 281.230469 300.515625 C 281.820312 297.617188 282.132812 294.621094 282.132812 291.550781 C 282.132812 266.738281 261.945312 246.550781 237.128906 246.550781 C 212.3125 246.550781 192.125 266.738281 192.125 291.550781 C 192.125 294.621094 192.4375 297.617188 193.023438 300.515625 L 80.492188 300.515625 C 77.488281 300.515625 75.050781 297.925781 75.050781 294.738281 L 75.050781 154.390625 C 75.050781 151.203125 77.488281 148.613281 80.492188 148.613281 L 244.007812 148.613281 L 244.007812 175.652344 C 244.007812 183.015625 250.003906 189.011719 257.371094 189.011719 L 297.128906 189.011719 L 297.128906 294.738281 C 297.132812 297.925781 294.691406 300.515625 291.6875 300.515625 Z M 257.972656 153.425781 L 286.742188 175.050781 L 257.972656 175.050781 Z M 352.785156 149.191406 C 349.191406 171.339844 333.179688 189.453125 311.09375 197.332031 L 311.09375 185.847656 C 311.09375 179.617188 308.152344 173.683594 303.222656 169.972656 L 261.371094 138.511719 C 258.058594 136.019531 253.964844 134.652344 249.84375 134.652344 L 80.492188 134.652344 C 69.796875 134.652344 61.089844 143.507812 61.089844 154.390625 L 61.089844 200.710938 C 34.550781 196.265625 15.335938 172.425781 19 144.828125 C 22.566406 117.957031 49.871094 96.546875 80.066406 102.605469 C 87.941406 104.179688 95.742188 98.980469 96.707031 90.804688 C 101.90625 46.460938 140.332031 13.019531 186.089844 13.019531 C 222.910156 13.019531 255.648438 34.546875 269.488281 67.855469 C 271.863281 73.570312 277.675781 77.027344 283.878906 76.519531 C 324.769531 73.0625 359.542969 107.597656 352.785156 149.191406 Z M 352.785156 149.191406 " fill-opacity="1" fill-rule="nonzero"/><path fill="#0a0237" d="M 158.167969 186.058594 L 102.320312 186.058594 C 93.097656 186.058594 93.085938 172.097656 102.320312 172.097656 L 158.167969 172.097656 C 167.390625 172.097656 167.402344 186.058594 158.167969 186.058594 Z M 158.167969 186.058594 " fill-opacity="1" fill-rule="nonzero"/><path fill="#0a0237" d="M 227.976562 213.980469 L 102.320312 213.980469 C 93.097656 213.980469 93.085938 200.019531 102.320312 200.019531 L 227.976562 200.019531 C 237.199219 200.019531 237.210938 213.980469 227.976562 213.980469 Z M 227.976562 213.980469 " fill-opacity="1" fill-rule="nonzero"/><path fill="#0a0237" d="M 227.976562 241.90625 L 102.320312 241.90625 C 93.097656 241.90625 93.085938 227.945312 102.320312 227.945312 L 227.976562 227.945312 C 237.199219 227.945312 237.210938 241.90625 227.976562 241.90625 Z M 227.976562 241.90625 " fill-opacity="1" fill-rule="nonzero"/></svg>