<svg xmlns="http://www.w3.org/2000/svg" xmlns:xlink="http://www.w3.org/1999/xlink" width="500" zoomAndPan="magnify" viewBox="0 0 375 374.999991" height="500" preserveAspectRatio="xMidYMid meet" version="1.0"><defs><clipPath id="c98883262d"><path d="M 0 0 L 368.25 0 L 368.25 368.25 L 0 368.25 Z M 0 0 " clip-rule="nonzero"/></clipPath></defs><g clip-path="url(#c98883262d)"><path fill="#0a0237" d="M 276.828125 361.882812 L 233.425781 347.417969 C 233.777344 345.671875 233.972656 343.863281 233.972656 342.015625 L 233.972656 338.085938 L 273.617188 351.292969 C 273.925781 351.394531 274.246094 351.449219 274.542969 351.449219 C 275.773438 351.449219 276.917969 350.664062 277.316406 349.441406 C 277.832031 347.910156 277.007812 346.253906 275.476562 345.738281 L 233.972656 331.914062 L 233.972656 319.578125 L 279.167969 334.644531 C 279.476562 334.75 279.785156 334.792969 280.09375 334.792969 C 281.316406 334.792969 282.457031 334.015625 282.871094 332.792969 C 283.382812 331.265625 282.550781 329.609375 281.019531 329.09375 L 233.972656 313.417969 L 233.972656 301.082031 L 284.722656 318 C 285.027344 318.101562 285.335938 318.148438 285.644531 318.148438 C 286.867188 318.148438 288.011719 317.371094 288.421875 316.148438 C 288.925781 314.617188 288.101562 312.960938 286.570312 312.449219 L 233.972656 294.921875 L 233.972656 264.089844 L 295.8125 284.699219 C 296.121094 284.800781 296.429688 284.859375 296.738281 284.859375 C 297.960938 284.859375 299.105469 284.082031 299.515625 282.847656 C 300.03125 281.316406 299.195312 279.660156 297.664062 279.15625 L 233.972656 257.929688 L 233.972656 245.59375 L 301.367188 268.050781 C 301.664062 268.15625 301.984375 268.199219 302.292969 268.199219 C 303.515625 268.199219 304.65625 267.425781 305.066406 266.203125 C 305.570312 264.671875 304.746094 263.015625 303.21875 262.5 L 233.972656 239.433594 L 233.972656 227.09375 L 306.90625 251.40625 C 307.214844 251.507812 307.523438 251.554688 307.832031 251.554688 C 309.066406 251.554688 310.199219 250.777344 310.609375 249.554688 C 311.121094 248.023438 310.289062 246.367188 308.757812 245.855469 L 233.972656 220.9375 L 233.972656 190.101562 L 318.011719 218.105469 C 318.308594 218.207031 318.628906 218.265625 318.9375 218.265625 C 320.160156 218.265625 321.300781 217.488281 321.703125 216.253906 C 322.214844 214.722656 321.394531 213.066406 319.851562 212.5625 L 233.972656 183.945312 L 233.972656 171.605469 L 323.550781 201.460938 C 323.859375 201.5625 324.167969 201.609375 324.476562 201.609375 C 325.699219 201.609375 326.84375 200.84375 327.253906 199.609375 C 327.769531 198.078125 326.933594 196.421875 325.402344 195.90625 L 233.972656 165.449219 L 233.972656 134.613281 L 334.65625 168.167969 C 334.953125 168.269531 335.273438 168.316406 335.570312 168.316406 C 336.804688 168.316406 337.949219 167.539062 338.347656 166.316406 C 338.859375 164.785156 338.027344 163.128906 336.496094 162.617188 L 233.972656 128.445312 L 233.972656 116.117188 L 340.199219 151.523438 C 340.507812 151.625 340.816406 151.671875 341.125 151.671875 C 342.347656 151.671875 343.488281 150.894531 343.898438 149.671875 C 344.414062 148.140625 343.578125 146.484375 342.046875 145.96875 L 233.972656 109.949219 L 233.972656 97.621094 L 345.75 134.867188 C 346.046875 134.96875 346.367188 135.027344 346.675781 135.027344 C 347.898438 135.027344 349.039062 134.25 349.441406 133.015625 C 349.953125 131.484375 349.132812 129.828125 347.601562 129.324219 L 233.972656 91.453125 L 233.972656 69.539062 L 237.539062 67.140625 L 240.78125 76.453125 C 241.078125 77.308594 241.765625 77.972656 242.621094 78.257812 C 243.488281 78.542969 244.425781 78.417969 245.179688 77.914062 L 253.359375 72.410156 L 256.59375 81.71875 C 256.902344 82.574219 257.574219 83.25 258.433594 83.535156 C 259.289062 83.820312 260.238281 83.695312 260.992188 83.179688 L 269.171875 77.6875 L 272.417969 86.984375 C 272.714844 87.84375 273.386719 88.515625 274.257812 88.800781 C 275.113281 89.089844 276.0625 88.960938 276.804688 88.449219 L 284.984375 82.953125 L 288.226562 92.265625 C 288.523438 93.121094 289.210938 93.785156 290.066406 94.070312 C 290.925781 94.355469 291.871094 94.230469 292.625 93.726562 L 300.796875 88.21875 L 304.039062 97.53125 C 304.335938 98.386719 305.023438 99.050781 305.878906 99.347656 C 306.746094 99.632812 307.683594 99.507812 308.4375 98.992188 L 316.617188 93.496094 L 319.851562 102.796875 C 320.160156 103.652344 320.832031 104.328125 321.691406 104.613281 C 322.546875 104.898438 323.496094 104.773438 324.25 104.257812 L 332.429688 98.765625 L 335.675781 108.074219 C 335.972656 108.921875 336.644531 109.59375 337.5 109.878906 C 338.371094 110.167969 339.316406 110.039062 340.0625 109.539062 L 348.242188 104.03125 L 351.484375 113.34375 C 351.78125 114.199219 352.457031 114.863281 353.324219 115.148438 C 354.179688 115.433594 355.128906 115.308594 355.871094 114.804688 L 360.109375 111.949219 Z M 207.824219 362.660156 L 26.152344 362.660156 C 14.953125 362.660156 5.847656 353.394531 5.847656 342.015625 L 5.847656 26.480469 C 5.847656 15.101562 14.953125 5.847656 26.152344 5.847656 L 207.824219 5.847656 C 219.019531 5.847656 228.125 15.101562 228.125 26.480469 L 228.125 342.015625 C 228.125 353.394531 219.019531 362.660156 207.824219 362.660156 Z M 237.035156 32.058594 L 244.449219 25.554688 L 248.847656 34.375 C 249.257812 35.1875 250.011719 35.769531 250.902344 35.941406 C 251.796875 36.113281 252.710938 35.871094 253.394531 35.265625 L 260.808594 28.777344 L 265.207031 37.597656 C 265.609375 38.410156 266.371094 38.980469 267.265625 39.164062 C 268.15625 39.324219 269.070312 39.082031 269.753906 38.488281 L 277.15625 31.988281 L 281.554688 40.808594 C 281.96875 41.621094 282.722656 42.203125 283.613281 42.375 C 284.503906 42.542969 285.429688 42.304688 286.101562 41.699219 L 293.515625 35.199219 L 297.914062 44.03125 C 298.328125 44.828125 299.082031 45.414062 299.972656 45.59375 C 300.851562 45.753906 301.777344 45.515625 302.464844 44.921875 L 309.878906 38.421875 L 314.277344 47.238281 C 314.675781 48.050781 315.441406 48.632812 316.320312 48.804688 C 317.222656 48.976562 318.136719 48.726562 318.824219 48.132812 L 326.226562 41.628906 L 330.625 50.460938 C 331.035156 51.261719 331.789062 51.84375 332.679688 52.015625 C 333.570312 52.199219 334.496094 51.945312 335.171875 51.351562 L 339.011719 47.984375 L 330.109375 93.269531 L 324.136719 97.289062 L 320.890625 87.992188 C 320.59375 87.132812 319.90625 86.460938 319.050781 86.175781 C 318.195312 85.890625 317.246094 86.015625 316.492188 86.515625 L 308.324219 92.023438 L 305.078125 82.714844 C 304.78125 81.855469 304.097656 81.195312 303.238281 80.90625 C 302.382812 80.621094 301.433594 80.75 300.679688 81.25 L 292.5 86.757812 L 289.269531 77.445312 C 288.960938 76.589844 288.285156 75.925781 287.429688 75.628906 C 286.570312 75.355469 285.625 75.480469 284.871094 75.984375 L 276.6875 81.480469 L 273.445312 72.179688 C 273.148438 71.324219 272.472656 70.648438 271.605469 70.363281 C 270.75 70.078125 269.8125 70.203125 269.058594 70.71875 L 260.878906 76.210938 L 257.632812 66.914062 C 257.335938 66.054688 256.664062 65.382812 255.792969 65.097656 C 254.9375 64.8125 253.988281 64.9375 253.234375 65.4375 L 245.066406 70.945312 L 241.820312 61.636719 C 241.523438 60.777344 240.839844 60.117188 239.984375 59.820312 C 239.125 59.542969 238.175781 59.660156 237.421875 60.171875 L 233.972656 62.492188 L 233.972656 32.46875 C 234.167969 32.546875 234.339844 32.683594 234.542969 32.71875 C 235.433594 32.890625 236.359375 32.652344 237.035156 32.058594 Z M 368.3125 103.746094 C 367.992188 102.898438 367.320312 102.25 366.460938 101.976562 C 365.617188 101.699219 364.679688 101.828125 363.9375 102.328125 L 355.757812 107.835938 L 352.511719 98.523438 C 352.214844 97.667969 351.542969 97.003906 350.6875 96.71875 C 349.816406 96.433594 348.878906 96.558594 348.125 97.0625 L 339.945312 102.570312 L 336.703125 93.257812 C 336.597656 92.960938 336.40625 92.734375 336.222656 92.503906 L 346.402344 40.75 C 346.527344 40.121094 346.414062 39.425781 346.128906 38.84375 C 345.714844 38.03125 344.960938 37.460938 344.070312 37.277344 C 343.179688 37.105469 342.265625 37.359375 341.582031 37.953125 L 334.164062 44.453125 L 329.765625 35.632812 C 329.367188 34.820312 328.601562 34.238281 327.722656 34.066406 C 326.832031 33.894531 325.90625 34.136719 325.21875 34.742188 L 317.816406 41.230469 L 313.417969 32.421875 C 313.007812 31.601562 312.253906 31.027344 311.363281 30.847656 C 310.472656 30.6875 309.558594 30.925781 308.871094 31.519531 L 301.457031 38.019531 L 297.058594 29.199219 C 296.660156 28.390625 295.894531 27.808594 295.003906 27.636719 C 294.113281 27.464844 293.199219 27.703125 292.511719 28.308594 L 285.097656 34.800781 L 280.699219 25.980469 C 280.300781 25.167969 279.546875 24.597656 278.65625 24.414062 C 277.761719 24.242188 276.835938 24.492188 276.152344 25.089844 L 268.75 31.589844 L 264.351562 22.769531 C 263.941406 21.957031 263.1875 21.375 262.292969 21.203125 C 261.414062 21.03125 260.488281 21.273438 259.804688 21.878906 L 252.390625 28.367188 L 247.992188 19.546875 C 247.589844 18.734375 246.824219 18.164062 245.933594 17.980469 C 245.054688 17.820312 244.128906 18.0625 243.445312 18.65625 L 236.042969 25.15625 L 232.820312 18.703125 C 229.527344 7.882812 219.566406 0 207.824219 0 L 26.152344 0 C 11.734375 0 0 11.882812 0 26.480469 L 0 342.015625 C 0 356.625 11.734375 368.507812 26.152344 368.507812 L 207.824219 368.507812 C 218.378906 368.507812 227.472656 362.121094 231.597656 352.980469 L 277.75 368.359375 C 278.046875 368.460938 278.367188 368.507812 278.675781 368.507812 C 279.121094 368.507812 279.578125 368.40625 279.980469 368.199219 C 280.675781 367.855469 281.203125 367.238281 281.453125 366.507812 L 368.359375 105.722656 C 368.566406 105.09375 368.542969 104.363281 368.3125 103.746094 " fill-opacity="1" fill-rule="nonzero"/></g><path fill="#0a0237" d="M 204.726562 114.0625 L 29.246094 114.0625 L 29.246094 43.871094 L 204.726562 43.871094 Z M 207.652344 38.019531 L 26.320312 38.019531 C 24.710938 38.019531 23.398438 39.335938 23.398438 40.945312 L 23.398438 116.988281 C 23.398438 118.597656 24.710938 119.910156 26.320312 119.910156 L 207.652344 119.910156 C 209.261719 119.910156 210.574219 118.597656 210.574219 116.988281 L 210.574219 40.945312 C 210.574219 39.335938 209.261719 38.019531 207.652344 38.019531 " fill-opacity="1" fill-rule="nonzero"/><path fill="#0a0237" d="M 70.191406 218.296875 C 70.191406 218.882812 69.722656 219.351562 69.140625 219.351562 L 30.296875 219.351562 C 29.714844 219.351562 29.246094 218.882812 29.246094 218.296875 L 29.246094 199.929688 C 29.246094 199.34375 29.714844 198.878906 30.296875 198.878906 L 69.140625 198.878906 C 69.722656 198.878906 70.191406 199.34375 70.191406 199.929688 Z M 69.140625 193.027344 L 30.296875 193.027344 C 26.492188 193.027344 23.398438 196.125 23.398438 199.929688 L 23.398438 218.296875 C 23.398438 222.101562 26.492188 225.199219 30.296875 225.199219 L 69.140625 225.199219 C 72.945312 225.199219 76.042969 222.101562 76.042969 218.296875 L 76.042969 199.929688 C 76.042969 196.125 72.945312 193.027344 69.140625 193.027344 " fill-opacity="1" fill-rule="nonzero"/><path fill="#0a0237" d="M 70.191406 168.578125 C 70.191406 169.164062 69.722656 169.628906 69.140625 169.628906 L 30.296875 169.628906 C 29.714844 169.628906 29.246094 169.164062 29.246094 168.578125 L 29.246094 150.207031 C 29.246094 149.625 29.714844 149.15625 30.296875 149.15625 L 69.140625 149.15625 C 69.722656 149.15625 70.191406 149.625 70.191406 150.207031 Z M 69.140625 143.308594 L 30.296875 143.308594 C 26.492188 143.308594 23.398438 146.40625 23.398438 150.207031 L 23.398438 168.578125 C 23.398438 172.382812 26.492188 175.480469 30.296875 175.480469 L 69.140625 175.480469 C 72.945312 175.480469 76.042969 172.382812 76.042969 168.578125 L 76.042969 150.207031 C 76.042969 146.40625 72.945312 143.308594 69.140625 143.308594 " fill-opacity="1" fill-rule="nonzero"/><path fill="#0a0237" d="M 70.191406 317.738281 C 70.191406 318.320312 69.722656 318.789062 69.140625 318.789062 L 30.296875 318.789062 C 29.714844 318.789062 29.246094 318.320312 29.246094 317.738281 L 29.246094 299.367188 C 29.246094 298.785156 29.714844 298.316406 30.296875 298.316406 L 69.140625 298.316406 C 69.722656 298.316406 70.191406 298.785156 70.191406 299.367188 Z M 69.140625 292.464844 L 30.296875 292.464844 C 26.492188 292.464844 23.398438 295.5625 23.398438 299.367188 L 23.398438 317.738281 C 23.398438 321.542969 26.492188 324.636719 30.296875 324.636719 L 69.140625 324.636719 C 72.945312 324.636719 76.042969 321.542969 76.042969 317.738281 L 76.042969 299.367188 C 76.042969 295.5625 72.945312 292.464844 69.140625 292.464844 " fill-opacity="1" fill-rule="nonzero"/><path fill="#0a0237" d="M 137.460938 317.738281 C 137.460938 318.320312 136.992188 318.789062 136.410156 318.789062 L 97.566406 318.789062 C 96.980469 318.789062 96.515625 318.320312 96.515625 317.738281 L 96.515625 299.367188 C 96.515625 298.785156 96.980469 298.316406 97.566406 298.316406 L 136.410156 298.316406 C 136.992188 298.316406 137.460938 298.785156 137.460938 299.367188 Z M 136.410156 292.464844 L 97.566406 292.464844 C 93.761719 292.464844 90.664062 295.5625 90.664062 299.367188 L 90.664062 317.738281 C 90.664062 321.542969 93.761719 324.636719 97.566406 324.636719 L 136.410156 324.636719 C 140.210938 324.636719 143.308594 321.542969 143.308594 317.738281 L 143.308594 299.367188 C 143.308594 295.5625 140.210938 292.464844 136.410156 292.464844 " fill-opacity="1" fill-rule="nonzero"/><path fill="#0a0237" d="M 70.191406 268.019531 C 70.191406 268.601562 69.722656 269.070312 69.140625 269.070312 L 30.296875 269.070312 C 29.714844 269.070312 29.246094 268.601562 29.246094 268.019531 L 29.246094 249.648438 C 29.246094 249.066406 29.714844 248.597656 30.296875 248.597656 L 69.140625 248.597656 C 69.722656 248.597656 70.191406 249.066406 70.191406 249.648438 Z M 69.140625 242.746094 L 30.296875 242.746094 C 26.492188 242.746094 23.398438 245.84375 23.398438 249.648438 L 23.398438 268.019531 C 23.398438 271.824219 26.492188 274.917969 30.296875 274.917969 L 69.140625 274.917969 C 72.945312 274.917969 76.042969 271.824219 76.042969 268.019531 L 76.042969 249.648438 C 76.042969 245.84375 72.945312 242.746094 69.140625 242.746094 " fill-opacity="1" fill-rule="nonzero"/><path fill="#0a0237" d="M 137.460938 268.019531 C 137.460938 268.601562 136.992188 269.070312 136.410156 269.070312 L 97.566406 269.070312 C 96.980469 269.070312 96.515625 268.601562 96.515625 268.019531 L 96.515625 249.648438 C 96.515625 249.066406 96.980469 248.597656 97.566406 248.597656 L 136.410156 248.597656 C 136.992188 248.597656 137.460938 249.066406 137.460938 249.648438 Z M 136.410156 242.746094 L 97.566406 242.746094 C 93.761719 242.746094 90.664062 245.84375 90.664062 249.648438 L 90.664062 268.019531 C 90.664062 271.824219 93.761719 274.917969 97.566406 274.917969 L 136.410156 274.917969 C 140.210938 274.917969 143.308594 271.824219 143.308594 268.019531 L 143.308594 249.648438 C 143.308594 245.84375 140.210938 242.746094 136.410156 242.746094 " fill-opacity="1" fill-rule="nonzero"/><path fill="#0a0237" d="M 137.460938 218.296875 C 137.460938 218.882812 136.992188 219.351562 136.410156 219.351562 L 97.566406 219.351562 C 96.980469 219.351562 96.515625 218.882812 96.515625 218.296875 L 96.515625 199.929688 C 96.515625 199.34375 96.980469 198.878906 97.566406 198.878906 L 136.410156 198.878906 C 136.992188 198.878906 137.460938 199.34375 137.460938 199.929688 Z M 136.410156 193.027344 L 97.566406 193.027344 C 93.761719 193.027344 90.664062 196.125 90.664062 199.929688 L 90.664062 218.296875 C 90.664062 222.101562 93.761719 225.199219 97.566406 225.199219 L 136.410156 225.199219 C 140.210938 225.199219 143.308594 222.101562 143.308594 218.296875 L 143.308594 199.929688 C 143.308594 196.125 140.210938 193.027344 136.410156 193.027344 " fill-opacity="1" fill-rule="nonzero"/><path fill="#0a0237" d="M 204.726562 218.296875 C 204.726562 218.882812 204.257812 219.351562 203.675781 219.351562 L 164.832031 219.351562 C 164.25 219.351562 163.78125 218.882812 163.78125 218.296875 L 163.78125 199.929688 C 163.78125 199.34375 164.25 198.878906 164.832031 198.878906 L 203.675781 198.878906 C 204.257812 198.878906 204.726562 199.34375 204.726562 199.929688 Z M 203.675781 193.027344 L 164.832031 193.027344 C 161.027344 193.027344 157.933594 196.125 157.933594 199.929688 L 157.933594 218.296875 C 157.933594 222.101562 161.027344 225.199219 164.832031 225.199219 L 203.675781 225.199219 C 207.480469 225.199219 210.574219 222.101562 210.574219 218.296875 L 210.574219 199.929688 C 210.574219 196.125 207.480469 193.027344 203.675781 193.027344 " fill-opacity="1" fill-rule="nonzero"/><path fill="#0a0237" d="M 204.726562 168.578125 C 204.726562 169.164062 204.257812 169.628906 203.675781 169.628906 L 164.832031 169.628906 C 164.25 169.628906 163.78125 169.164062 163.78125 168.578125 L 163.78125 150.207031 C 163.78125 149.625 164.25 149.15625 164.832031 149.15625 L 203.675781 149.15625 C 204.257812 149.15625 204.726562 149.625 204.726562 150.207031 Z M 203.675781 143.308594 L 164.832031 143.308594 C 161.027344 143.308594 157.933594 146.40625 157.933594 150.207031 L 157.933594 168.578125 C 157.933594 172.382812 161.027344 175.480469 164.832031 175.480469 L 203.675781 175.480469 C 207.480469 175.480469 210.574219 172.382812 210.574219 168.578125 L 210.574219 150.207031 C 210.574219 146.40625 207.480469 143.308594 203.675781 143.308594 " fill-opacity="1" fill-rule="nonzero"/><path fill="#0a0237" d="M 137.460938 168.578125 C 137.460938 169.164062 136.992188 169.628906 136.410156 169.628906 L 97.566406 169.628906 C 96.980469 169.628906 96.515625 169.164062 96.515625 168.578125 L 96.515625 150.207031 C 96.515625 149.625 96.980469 149.15625 97.566406 149.15625 L 136.410156 149.15625 C 136.992188 149.15625 137.460938 149.625 137.460938 150.207031 Z M 136.410156 143.308594 L 97.566406 143.308594 C 93.761719 143.308594 90.664062 146.40625 90.664062 150.207031 L 90.664062 168.578125 C 90.664062 172.382812 93.761719 175.480469 97.566406 175.480469 L 136.410156 175.480469 C 140.210938 175.480469 143.308594 172.382812 143.308594 168.578125 L 143.308594 150.207031 C 143.308594 146.40625 140.210938 143.308594 136.410156 143.308594 " fill-opacity="1" fill-rule="nonzero"/><path fill="#0a0237" d="M 204.726562 317.738281 C 204.726562 318.320312 204.257812 318.789062 203.675781 318.789062 L 164.832031 318.789062 C 164.25 318.789062 163.78125 318.320312 163.78125 317.738281 L 163.78125 249.648438 C 163.78125 249.066406 164.25 248.597656 164.832031 248.597656 L 203.675781 248.597656 C 204.257812 248.597656 204.726562 249.066406 204.726562 249.648438 Z M 203.675781 242.746094 L 164.832031 242.746094 C 161.027344 242.746094 157.933594 245.84375 157.933594 249.648438 L 157.933594 317.738281 C 157.933594 321.542969 161.027344 324.636719 164.832031 324.636719 L 203.675781 324.636719 C 207.480469 324.636719 210.574219 321.542969 210.574219 317.738281 L 210.574219 249.648438 C 210.574219 245.84375 207.480469 242.746094 203.675781 242.746094 " fill-opacity="1" fill-rule="nonzero"/><path fill="#0a0237" d="M 178.40625 101.597656 L 178.40625 105.289062 C 178.40625 106.898438 179.71875 108.210938 181.328125 108.210938 C 182.941406 108.210938 184.253906 106.898438 184.253906 105.289062 L 184.253906 101.597656 C 189.28125 100.285156 193.027344 95.703125 193.027344 90.230469 L 193.027344 89.066406 C 193.039062 88.664062 193.359375 79.230469 182.414062 74.832031 C 175.605469 72.101562 175.480469 68.558594 175.480469 68.328125 L 175.480469 67.015625 C 175.480469 63.75 178.109375 61.085938 181.328125 61.085938 C 184.550781 61.085938 187.179688 63.75 187.179688 67.015625 L 187.179688 68.46875 L 193.027344 68.46875 L 193.027344 67.015625 C 193.027344 61.542969 189.28125 56.972656 184.253906 55.660156 L 184.253906 52.644531 C 184.253906 51.03125 182.941406 49.71875 181.328125 49.71875 C 179.71875 49.71875 178.40625 51.03125 178.40625 52.644531 L 178.40625 55.660156 C 173.378906 56.972656 169.628906 61.542969 169.628906 67.015625 L 169.640625 68.136719 C 169.621094 68.445312 169.253906 75.847656 180.242188 80.257812 C 187.222656 83.066406 187.191406 88.585938 187.179688 88.929688 L 187.179688 90.230469 C 187.179688 93.507812 184.550781 96.171875 181.328125 96.171875 C 178.109375 96.171875 175.480469 93.507812 175.480469 90.230469 L 175.480469 88.78125 L 169.628906 88.78125 L 169.628906 90.230469 C 169.628906 95.703125 173.378906 100.285156 178.40625 101.597656 " fill-opacity="1" fill-rule="nonzero"/><path fill="#0a0237" d="M 125.761719 99.4375 L 149.15625 99.4375 C 150.769531 99.4375 152.082031 98.125 152.082031 96.515625 C 152.082031 94.902344 150.769531 93.589844 149.15625 93.589844 L 125.761719 93.589844 C 124.148438 93.589844 122.835938 94.902344 122.835938 96.515625 C 122.835938 98.125 124.148438 99.4375 125.761719 99.4375 " fill-opacity="1" fill-rule="nonzero"/><path fill="#0a0237" d="M 125.761719 70.191406 L 134.535156 70.191406 L 134.535156 78.964844 C 134.535156 80.578125 135.847656 81.890625 137.460938 81.890625 C 139.070312 81.890625 140.382812 80.578125 140.382812 78.964844 L 140.382812 70.191406 L 149.15625 70.191406 C 150.769531 70.191406 152.082031 68.878906 152.082031 67.265625 C 152.082031 65.65625 150.769531 64.34375 149.15625 64.34375 L 140.382812 64.34375 L 140.382812 55.570312 C 140.382812 53.957031 139.070312 52.644531 137.460938 52.644531 C 135.847656 52.644531 134.535156 53.957031 134.535156 55.570312 L 134.535156 64.34375 L 125.761719 64.34375 C 124.148438 64.34375 122.835938 65.65625 122.835938 67.265625 C 122.835938 68.878906 124.148438 70.191406 125.761719 70.191406 " fill-opacity="1" fill-rule="nonzero"/></svg>