<svg xmlns="http://www.w3.org/2000/svg" xmlns:xlink="http://www.w3.org/1999/xlink" width="500" zoomAndPan="magnify" viewBox="0 0 375 374.999991" height="500" preserveAspectRatio="xMidYMid meet" version="1.0"><defs><clipPath id="fd7e4f7598"><path d="M 101.953125 67 L 272.953125 67 L 272.953125 375 L 101.953125 375 Z M 101.953125 67 " clip-rule="nonzero"/></clipPath></defs><g clip-path="url(#fd7e4f7598)"><path fill="#0a0237" d="M 183.570312 205.941406 L 191.203125 205.941406 L 191.203125 354.589844 C 191.203125 365.835938 200.320312 374.949219 211.558594 374.949219 C 222.804688 374.949219 231.921875 365.835938 231.921875 354.589844 L 231.921875 170.511719 C 229.507812 171.203125 227 171.816406 224.398438 172.296875 L 223.222656 169.15625 C 234.027344 167.253906 243.53125 162.996094 251.09375 158.996094 C 252.011719 158.507812 252.882812 158.015625 253.738281 157.53125 C 262.25 152.707031 267.699219 148.359375 268.082031 148.0625 C 268.113281 148.039062 268.136719 148.011719 268.167969 147.988281 C 268.386719 147.808594 268.597656 147.617188 268.800781 147.425781 C 268.921875 147.316406 269.046875 147.207031 269.164062 147.09375 C 269.328125 146.925781 269.484375 146.75 269.640625 146.578125 C 269.777344 146.425781 269.917969 146.273438 270.050781 146.117188 C 270.164062 145.980469 270.265625 145.832031 270.371094 145.6875 C 270.523438 145.488281 270.679688 145.289062 270.820312 145.082031 C 270.902344 144.957031 270.972656 144.824219 271.050781 144.695312 C 271.195312 144.464844 271.34375 144.234375 271.472656 143.996094 C 271.566406 143.820312 271.644531 143.632812 271.730469 143.453125 C 271.824219 143.257812 271.925781 143.066406 272.007812 142.867188 C 272.148438 142.535156 272.269531 142.191406 272.382812 141.84375 C 272.398438 141.796875 272.417969 141.75 272.433594 141.703125 C 272.789062 140.566406 272.984375 139.375 273.019531 138.15625 C 273.023438 138.085938 273.03125 138.019531 273.03125 137.949219 C 273.035156 137.671875 273.015625 137.394531 273.003906 137.117188 C 272.996094 136.949219 272.996094 136.789062 272.980469 136.625 C 272.960938 136.414062 272.929688 136.203125 272.898438 135.992188 C 272.867188 135.761719 272.835938 135.527344 272.792969 135.296875 C 272.785156 135.25 272.785156 135.203125 272.773438 135.15625 C 272.632812 134.589844 269.675781 119.699219 262.351562 103.816406 C 258.644531 95.863281 253.882812 87.578125 247.035156 80.574219 C 240.332031 73.648438 230.5625 67.726562 218.738281 67.757812 C 218.191406 67.757812 217.65625 67.800781 217.128906 67.863281 L 208.472656 67.863281 C 201.441406 73.816406 192.359375 77.417969 182.445312 77.417969 C 172.480469 77.417969 163.355469 73.777344 156.308594 67.769531 C 155.953125 67.765625 155.59375 67.757812 155.234375 67.78125 C 152.984375 67.851562 141.996094 69.375 130.621094 80.363281 C 119.214844 91.320312 108.03125 110.78125 102.238281 144.746094 C 102.046875 145.835938 101.949219 146.96875 101.953125 148.101562 C 101.945312 150.898438 102.570312 153.605469 103.535156 155.890625 C 103.535156 155.894531 103.535156 155.894531 103.539062 155.898438 C 103.539062 155.902344 103.539062 155.90625 103.542969 155.914062 L 103.542969 155.910156 C 105.449219 160.359375 108.296875 163.34375 111.128906 165.714844 C 114.765625 168.679688 118.683594 170.863281 122.769531 172.726562 C 124.320312 173.433594 125.894531 174.101562 127.492188 174.742188 C 144.707031 181.453125 164.816406 184.558594 165.269531 184.671875 C 165.980469 184.789062 166.6875 184.84375 167.386719 184.84375 C 173.738281 184.84375 179.332031 180.238281 180.371094 173.761719 C 181.53125 166.582031 176.644531 159.820312 169.46875 158.664062 C 169.464844 158.664062 168.894531 158.570312 167.714844 158.355469 C 163.609375 157.625 152.816406 155.492188 143.101562 152.34375 C 139.453125 151.171875 135.953125 149.832031 133.175781 148.519531 C 132.277344 148.09375 131.453125 147.671875 130.722656 147.261719 C 129.953125 146.832031 129.300781 146.417969 128.777344 146.054688 C 130.210938 138.429688 131.898438 131.929688 133.726562 126.390625 L 142 148.503906 C 142.691406 148.742188 143.390625 148.980469 144.109375 149.210938 C 145.390625 149.628906 146.6875 150.023438 147.980469 150.398438 L 137.417969 122.167969 L 192.632812 101.503906 L 221.476562 178.589844 L 166.261719 199.246094 L 161.832031 187.40625 C 156.902344 186.511719 150.136719 185.117188 142.847656 183.160156 L 142.847656 354.59375 C 142.847656 365.839844 151.964844 374.953125 163.207031 374.953125 C 171.90625 374.953125 179.3125 369.488281 182.226562 361.8125 C 183.082031 359.566406 183.566406 357.140625 183.566406 354.59375 L 183.566406 205.941406 Z M 244.832031 132.175781 C 243.960938 132.722656 243.035156 133.289062 242.042969 133.871094 C 240.75 134.628906 239.363281 135.40625 237.894531 136.171875 C 230.601562 140.066406 221.398438 143.425781 213.71875 143.761719 L 212.511719 140.539062 C 217.824219 140.527344 224.835938 138.648438 231.921875 135.429688 L 231.921875 103.445312 C 236.054688 109.226562 239.789062 117.195312 242.253906 124.238281 C 243.285156 127.109375 244.144531 129.820312 244.832031 132.175781 Z M 142.847656 114.855469 L 137.355469 116.910156 C 139.175781 112.820312 141.039062 109.46875 142.847656 106.734375 Z M 203.601562 107.996094 L 223.359375 107.996094 L 223.359375 115.679688 L 203.601562 115.679688 Z M 181.125 81.339844 L 193.640625 81.339844 L 196.769531 93.691406 L 196.292969 94.441406 C 195.933594 94.742188 195.566406 95.015625 195.1875 95.273438 L 189.09375 97.554688 C 188.527344 97.625 187.953125 97.671875 187.378906 97.671875 C 184.203125 97.667969 181.050781 96.59375 178.472656 94.449219 L 177.992188 93.691406 Z M 181.125 81.339844 " fill-opacity="1" fill-rule="nonzero"/></g><path fill="#0a0237" d="M 219.492188 37.074219 C 219.492188 38.285156 219.433594 39.496094 219.316406 40.703125 C 219.195312 41.910156 219.019531 43.109375 218.78125 44.300781 C 218.546875 45.492188 218.25 46.667969 217.898438 47.828125 C 217.546875 48.988281 217.136719 50.128906 216.671875 51.25 C 216.210938 52.371094 215.691406 53.46875 215.117188 54.539062 C 214.546875 55.609375 213.925781 56.648438 213.25 57.65625 C 212.574219 58.664062 211.855469 59.640625 211.082031 60.578125 C 210.3125 61.515625 209.5 62.414062 208.640625 63.273438 C 207.785156 64.128906 206.886719 64.945312 205.949219 65.714844 C 205.011719 66.484375 204.035156 67.207031 203.027344 67.878906 C 202.019531 68.554688 200.980469 69.175781 199.910156 69.75 C 198.839844 70.320312 197.742188 70.839844 196.621094 71.304688 C 195.5 71.769531 194.359375 72.175781 193.199219 72.527344 C 192.035156 72.878906 190.863281 73.175781 189.671875 73.410156 C 188.480469 73.648438 187.28125 73.828125 186.074219 73.945312 C 184.867188 74.0625 183.65625 74.125 182.441406 74.125 C 181.230469 74.125 180.019531 74.0625 178.8125 73.945312 C 177.605469 73.828125 176.40625 73.648438 175.214844 73.410156 C 174.023438 73.175781 172.847656 72.878906 171.6875 72.527344 C 170.527344 72.175781 169.386719 71.769531 168.265625 71.304688 C 167.144531 70.839844 166.046875 70.320312 164.976562 69.75 C 163.90625 69.175781 162.867188 68.554688 161.859375 67.878906 C 160.847656 67.207031 159.875 66.484375 158.9375 65.714844 C 158 64.945312 157.101562 64.128906 156.242188 63.273438 C 155.386719 62.414062 154.570312 61.515625 153.800781 60.578125 C 153.03125 59.640625 152.308594 58.664062 151.636719 57.65625 C 150.960938 56.648438 150.339844 55.609375 149.765625 54.539062 C 149.195312 53.46875 148.675781 52.371094 148.210938 51.25 C 147.746094 50.128906 147.339844 48.988281 146.988281 47.828125 C 146.636719 46.667969 146.339844 45.492188 146.105469 44.300781 C 145.867188 43.109375 145.6875 41.910156 145.570312 40.703125 C 145.453125 39.496094 145.390625 38.285156 145.390625 37.074219 C 145.390625 35.859375 145.453125 34.648438 145.570312 33.441406 C 145.6875 32.234375 145.867188 31.035156 146.105469 29.84375 C 146.339844 28.652344 146.636719 27.476562 146.988281 26.316406 C 147.339844 25.15625 147.746094 24.015625 148.210938 22.894531 C 148.675781 21.773438 149.195312 20.675781 149.765625 19.605469 C 150.339844 18.535156 150.960938 17.496094 151.636719 16.488281 C 152.308594 15.480469 153.03125 14.503906 153.800781 13.566406 C 154.570312 12.628906 155.386719 11.730469 156.242188 10.875 C 157.101562 10.015625 158 9.203125 158.9375 8.433594 C 159.875 7.660156 160.847656 6.941406 161.859375 6.265625 C 162.867188 5.589844 163.90625 4.96875 164.976562 4.394531 C 166.046875 3.824219 167.144531 3.304688 168.265625 2.839844 C 169.386719 2.378906 170.527344 1.96875 171.6875 1.617188 C 172.847656 1.265625 174.023438 0.96875 175.214844 0.734375 C 176.40625 0.496094 177.605469 0.320312 178.8125 0.199219 C 180.019531 0.0820312 181.230469 0.0195312 182.441406 0.0195312 C 183.65625 0.0195312 184.867188 0.0820312 186.074219 0.199219 C 187.28125 0.320312 188.480469 0.496094 189.671875 0.734375 C 190.863281 0.96875 192.035156 1.265625 193.199219 1.617188 C 194.359375 1.96875 195.5 2.378906 196.621094 2.839844 C 197.742188 3.304688 198.839844 3.824219 199.910156 4.394531 C 200.980469 4.96875 202.019531 5.589844 203.027344 6.265625 C 204.035156 6.941406 205.011719 7.660156 205.949219 8.433594 C 206.886719 9.203125 207.785156 10.015625 208.640625 10.875 C 209.5 11.730469 210.3125 12.628906 211.082031 13.566406 C 211.855469 14.503906 212.574219 15.480469 213.25 16.488281 C 213.925781 17.496094 214.546875 18.535156 215.117188 19.605469 C 215.691406 20.675781 216.210938 21.773438 216.671875 22.894531 C 217.136719 24.015625 217.546875 25.15625 217.898438 26.316406 C 218.25 27.476562 218.546875 28.652344 218.78125 29.84375 C 219.019531 31.035156 219.195312 32.234375 219.316406 33.441406 C 219.433594 34.648438 219.492188 35.859375 219.492188 37.074219 Z M 219.492188 37.074219 " fill-opacity="1" fill-rule="nonzero"/></svg>