<svg xmlns="http://www.w3.org/2000/svg" xmlns:xlink="http://www.w3.org/1999/xlink" width="500" zoomAndPan="magnify" viewBox="0 0 375 374.999991" height="500" preserveAspectRatio="xMidYMid meet" version="1.0"><path fill="#0a0237" d="M 131.25 125 L 143.75 125 L 143.75 137.5 L 131.25 137.5 Z M 131.25 125 " fill-opacity="1" fill-rule="nonzero"/><path fill="#0a0237" d="M 131.25 150 L 143.75 150 L 143.75 162.5 L 131.25 162.5 Z M 131.25 150 " fill-opacity="1" fill-rule="nonzero"/><path fill="#0a0237" d="M 131.25 175 L 143.75 175 L 143.75 187.5 L 131.25 187.5 Z M 131.25 175 " fill-opacity="1" fill-rule="nonzero"/><path fill="#0a0237" d="M 131.25 200 L 143.75 200 L 143.75 212.5 L 131.25 212.5 Z M 131.25 200 " fill-opacity="1" fill-rule="nonzero"/><path fill="#0a0237" d="M 156.25 125 L 168.75 125 L 168.75 137.5 L 156.25 137.5 Z M 156.25 125 " fill-opacity="1" fill-rule="nonzero"/><path fill="#0a0237" d="M 156.25 150 L 168.75 150 L 168.75 162.5 L 156.25 162.5 Z M 156.25 150 " fill-opacity="1" fill-rule="nonzero"/><path fill="#0a0237" d="M 156.25 175 L 168.75 175 L 168.75 187.5 L 156.25 187.5 Z M 156.25 175 " fill-opacity="1" fill-rule="nonzero"/><path fill="#0a0237" d="M 156.25 200 L 168.75 200 L 168.75 212.5 L 156.25 212.5 Z M 156.25 200 " fill-opacity="1" fill-rule="nonzero"/><path fill="#0a0237" d="M 181.25 125 L 193.75 125 L 193.75 137.5 L 181.25 137.5 Z M 181.25 125 " fill-opacity="1" fill-rule="nonzero"/><path fill="#0a0237" d="M 181.25 150 L 193.75 150 L 193.75 162.5 L 181.25 162.5 Z M 181.25 150 " fill-opacity="1" fill-rule="nonzero"/><path fill="#0a0237" d="M 181.25 175 L 193.75 175 L 193.75 187.5 L 181.25 187.5 Z M 181.25 175 " fill-opacity="1" fill-rule="nonzero"/><path fill="#0a0237" d="M 181.25 200 L 193.75 200 L 193.75 212.5 L 181.25 212.5 Z M 181.25 200 " fill-opacity="1" fill-rule="nonzero"/><path fill="#0a0237" d="M 206.25 125 L 218.75 125 L 218.75 137.5 L 206.25 137.5 Z M 206.25 125 " fill-opacity="1" fill-rule="nonzero"/><path fill="#000;" d="M 156.25 100 L 168.75 100 L 168.75 112.5 L 156.25 112.5 Z M 156.25 100 " fill-opacity="1" fill-rule="nonzero"/><path fill="#0a0237" d="M 181.25 100 L 193.75 100 L 193.75 112.5 L 181.25 112.5 Z M 181.25 100 " fill-opacity="1" fill-rule="nonzero"/><path fill="#0a0237" d="M 206.25 100 L 218.75 100 L 218.75 112.5 L 206.25 112.5 Z M 206.25 100 " fill-opacity="1" fill-rule="nonzero"/><path fill="#0a0237" d="M 206.25 150 L 218.75 150 L 218.75 162.5 L 206.25 162.5 Z M 206.25 150 " fill-opacity="1" fill-rule="nonzero"/><path fill="#0a0237" d="M 206.25 175 L 218.75 175 L 218.75 187.5 L 206.25 187.5 Z M 206.25 175 " fill-opacity="1" fill-rule="nonzero"/><path fill="#0a0237" d="M 206.25 200 L 218.75 200 L 218.75 212.5 L 206.25 212.5 Z M 206.25 200 " fill-opacity="1" fill-rule="nonzero"/><path fill="#0a0237" d="M 231.25 125 L 243.75 125 L 243.75 137.5 L 231.25 137.5 Z M 231.25 125 " fill-opacity="1" fill-rule="nonzero"/><path fill="#0a0237" d="M 231.25 150 L 243.75 150 L 243.75 162.5 L 231.25 162.5 Z M 231.25 150 " fill-opacity="1" fill-rule="nonzero"/><path fill="#0a0237" d="M 231.25 175 L 243.75 175 L 243.75 187.5 L 231.25 187.5 Z M 231.25 175 " fill-opacity="1" fill-rule="nonzero"/><path fill="#0a0237" d="M 231.25 200 L 243.75 200 L 243.75 212.5 L 231.25 212.5 Z M 231.25 200 " fill-opacity="1" fill-rule="nonzero"/><path fill="#0a0237" d="M 368.75 93.75 L 275 93.75 L 275 6.25 C 275 2.792969 272.207031 0 268.75 0 L 106.25 0 C 102.792969 0 100 2.792969 100 6.25 L 100 93.75 L 6.25 93.75 C 2.792969 93.75 0 96.542969 0 100 L 0 325 C 0 328.457031 2.792969 331.25 6.25 331.25 L 19.3125 331.25 C 18.96875 333.289062 18.75 335.367188 18.75 337.5 L 18.75 368.75 C 18.75 372.207031 21.542969 375 25 375 L 350 375 C 353.457031 375 356.25 372.207031 356.25 368.75 L 356.25 337.5 C 356.25 335.367188 356.03125 333.289062 355.6875 331.25 L 368.75 331.25 C 372.207031 331.25 375 328.457031 375 325 L 375 100 C 375 96.542969 372.207031 93.75 368.75 93.75 Z M 268.75 268.75 C 268.75 275.644531 263.144531 281.25 256.25 281.25 C 249.355469 281.25 243.75 275.644531 243.75 268.75 C 243.75 261.855469 249.355469 256.25 256.25 256.25 C 263.144531 256.25 268.75 261.855469 268.75 268.75 Z M 118.75 256.25 C 125.644531 256.25 131.25 261.855469 131.25 268.75 C 131.25 275.644531 125.644531 281.25 118.75 281.25 C 111.855469 281.25 106.25 275.644531 106.25 268.75 C 106.25 261.855469 111.855469 256.25 118.75 256.25 Z M 81.25 362.5 L 31.25 362.5 L 31.25 337.5 C 31.25 323.710938 42.460938 312.5 56.25 312.5 C 70.039062 312.5 81.25 323.710938 81.25 337.5 Z M 43.75 287.5 C 43.75 280.605469 49.355469 275 56.25 275 C 63.144531 275 68.75 280.605469 68.75 287.5 C 68.75 294.394531 63.144531 300 56.25 300 C 49.355469 300 43.75 294.394531 43.75 287.5 Z M 82.199219 310.488281 C 79.851562 308.226562 77.210938 306.257812 74.335938 304.667969 C 78.59375 300.179688 81.25 294.164062 81.25 287.5 C 81.25 273.710938 70.039062 262.5 56.25 262.5 C 42.460938 262.5 31.25 273.710938 31.25 287.5 C 31.25 294.164062 33.90625 300.179688 38.167969 304.667969 C 32.199219 307.96875 27.242188 312.855469 23.824219 318.75 L 12.5 318.75 L 12.5 106.25 L 100 106.25 L 100 252.386719 C 96.15625 256.78125 93.75 262.460938 93.75 268.75 C 93.75 275.414062 96.40625 281.429688 100.667969 285.917969 C 91.429688 291.023438 84.585938 299.917969 82.199219 310.488281 Z M 143.75 362.5 L 93.75 362.5 L 93.75 318.75 C 93.75 304.960938 104.960938 293.75 118.75 293.75 C 132.539062 293.75 143.75 304.960938 143.75 318.75 Z M 218.75 362.5 L 156.25 362.5 L 156.25 318.75 C 156.25 301.519531 170.269531 287.5 187.5 287.5 C 204.730469 287.5 218.75 301.519531 218.75 318.75 Z M 168.75 256.25 C 168.75 245.914062 177.164062 237.5 187.5 237.5 C 197.835938 237.5 206.25 245.914062 206.25 256.25 C 206.25 266.585938 197.835938 275 187.5 275 C 177.164062 275 168.75 266.585938 168.75 256.25 Z M 225.5625 297.261719 C 221.386719 289.898438 215.148438 283.867188 207.632812 279.949219 C 214.375 274.210938 218.75 265.773438 218.75 256.25 C 218.75 239.019531 204.730469 225 187.5 225 C 170.269531 225 156.25 239.019531 156.25 256.25 C 156.25 265.773438 160.625 274.210938 167.367188 279.949219 C 159.851562 283.867188 153.613281 289.898438 149.4375 297.261719 C 146.15625 292.59375 141.855469 288.695312 136.835938 285.917969 C 141.09375 281.429688 143.75 275.414062 143.75 268.75 C 143.75 254.960938 132.539062 243.75 118.75 243.75 C 116.582031 243.75 114.511719 244.113281 112.5 244.636719 L 112.5 12.5 L 262.5 12.5 L 262.5 244.636719 C 260.488281 244.113281 258.417969 243.75 256.25 243.75 C 242.460938 243.75 231.25 254.960938 231.25 268.75 C 231.25 275.414062 233.90625 281.429688 238.167969 285.917969 C 233.148438 288.695312 228.84375 292.59375 225.5625 297.261719 Z M 281.25 337.5 L 281.25 362.5 L 231.25 362.5 L 231.25 318.75 C 231.25 304.960938 242.460938 293.75 256.25 293.75 C 270.039062 293.75 281.25 304.960938 281.25 318.75 Z M 343.75 362.5 L 293.75 362.5 L 293.75 337.5 C 293.75 323.710938 304.960938 312.5 318.75 312.5 C 332.539062 312.5 343.75 323.710938 343.75 337.5 Z M 306.25 287.5 C 306.25 280.605469 311.855469 275 318.75 275 C 325.644531 275 331.25 280.605469 331.25 287.5 C 331.25 294.394531 325.644531 300 318.75 300 C 311.855469 300 306.25 294.394531 306.25 287.5 Z M 362.5 318.75 L 351.175781 318.75 C 347.757812 312.855469 342.800781 307.96875 336.832031 304.667969 C 341.09375 300.179688 343.75 294.164062 343.75 287.5 C 343.75 273.710938 332.539062 262.5 318.75 262.5 C 304.960938 262.5 293.75 273.710938 293.75 287.5 C 293.75 294.164062 296.40625 300.179688 300.667969 304.667969 C 297.792969 306.261719 295.15625 308.226562 292.804688 310.488281 C 290.417969 299.917969 283.574219 291.023438 274.335938 285.917969 C 278.59375 281.429688 281.25 275.414062 281.25 268.75 C 281.25 262.460938 278.84375 256.78125 275 252.386719 L 275 106.25 L 362.5 106.25 Z M 362.5 318.75 " fill-opacity="1" fill-rule="nonzero"/><path fill="#0a0237" d="M 293.75 143.75 L 306.25 143.75 L 306.25 243.75 L 293.75 243.75 Z M 293.75 143.75 " fill-opacity="1" fill-rule="nonzero"/><path fill="#0a0237" d="M 331.25 143.75 L 343.75 143.75 L 343.75 243.75 L 331.25 243.75 Z M 331.25 143.75 " fill-opacity="1" fill-rule="nonzero"/><path fill="#0a0237" d="M 31.25 143.75 L 43.75 143.75 L 43.75 243.75 L 31.25 243.75 Z M 31.25 143.75 " fill-opacity="1" fill-rule="nonzero"/><path fill="#0a0237" d="M 68.75 143.75 L 81.25 143.75 L 81.25 243.75 L 68.75 243.75 Z M 68.75 143.75 " fill-opacity="1" fill-rule="nonzero"/><path fill="#0a0237" d="M 150 87.5 L 225 87.5 C 228.457031 87.5 231.25 84.707031 231.25 81.25 L 231.25 31.25 C 231.25 27.792969 228.457031 25 225 25 L 150 25 C 146.542969 25 143.75 27.792969 143.75 31.25 L 143.75 81.25 C 143.75 84.707031 146.542969 87.5 150 87.5 Z M 156.25 37.5 L 218.75 37.5 L 218.75 75 L 156.25 75 Z M 156.25 37.5 " fill-opacity="1" fill-rule="nonzero"/></svg>