<svg xmlns="http://www.w3.org/2000/svg" xmlns:xlink="http://www.w3.org/1999/xlink" width="500" zoomAndPan="magnify" viewBox="0 0 375 374.999991" height="500" preserveAspectRatio="xMidYMid meet" version="1.0"><defs><clipPath id="3672c8cff6"><path d="M 0 26.484375 L 375 26.484375 L 375 348.234375 L 0 348.234375 Z M 0 26.484375 " clip-rule="nonzero"/></clipPath></defs><g clip-path="url(#3672c8cff6)"><path fill="#0a0237" d="M 340.613281 118.980469 C 329.171875 105.511719 317.835938 96.375 311.535156 91.765625 C 314.6875 89.636719 316.761719 86.03125 316.761719 81.949219 C 316.761719 77.355469 314.128906 73.371094 310.292969 71.410156 C 320.21875 58.683594 323.222656 42.242188 323.359375 41.480469 C 323.550781 40.398438 323.128906 39.296875 322.261719 38.621094 C 316.847656 34.382812 311.414062 32.59375 306.121094 33.300781 C 302.222656 33.824219 299.210938 35.621094 297.214844 37.230469 C 294.566406 34.035156 289.4375 29.648438 281.242188 29.648438 C 273.046875 29.648438 267.917969 34.035156 265.269531 37.230469 C 263.273438 35.621094 260.257812 33.824219 256.363281 33.300781 C 251.074219 32.59375 245.636719 34.386719 240.222656 38.621094 C 239.355469 39.296875 238.933594 40.398438 239.125 41.480469 C 239.257812 42.242188 242.265625 58.683594 252.1875 71.410156 C 248.355469 73.371094 245.71875 77.355469 245.71875 81.949219 C 245.71875 86.03125 247.796875 89.636719 250.949219 91.769531 C 246.710938 94.867188 240.191406 100.027344 232.890625 107.171875 C 233.121094 105.230469 233.246094 103.246094 233.246094 101.214844 L 233.246094 74.132812 C 233.25 31.128906 201.253906 26.484375 187.5 26.484375 C 175.820312 26.484375 150.988281 29.839844 143.765625 57.1875 L 24.03125 57.1875 C 22.722656 57.1875 21.570312 58.042969 21.1875 59.296875 L 0.382812 127.65625 L 0.253906 161.214844 C 0.253906 165.5 1.777344 169.441406 4.308594 172.519531 L 4.308594 268.761719 C 4.308594 270.402344 5.640625 271.734375 7.28125 271.734375 L 104.757812 271.734375 C 105.429688 274.070312 106.28125 276.273438 107.347656 278.308594 C 112.148438 287.496094 120.492188 292.492188 132.15625 293.207031 L 132.15625 339.421875 C 132.15625 344.445312 136.242188 348.53125 141.265625 348.53125 L 233.734375 348.53125 C 238.757812 348.53125 242.84375 344.445312 242.84375 339.421875 L 242.84375 293.207031 C 254.507812 292.492188 262.851562 287.496094 267.652344 278.308594 C 268.757812 276.195312 269.636719 273.898438 270.316406 271.464844 C 273.859375 271.640625 277.519531 271.734375 281.242188 271.734375 C 309.835938 271.734375 332.390625 266.628906 348.269531 256.558594 C 365.835938 245.414062 374.746094 228.589844 374.746094 206.542969 C 374.746094 167.382812 356.183594 137.3125 340.613281 118.980469 Z M 245.359375 42.222656 C 248.910156 39.800781 252.316406 38.777344 255.507812 39.1875 C 260.359375 39.800781 263.3125 43.582031 263.328125 43.605469 C 263.945312 44.425781 264.941406 44.867188 265.960938 44.78125 C 266.984375 44.695312 267.890625 44.082031 268.359375 43.167969 C 268.519531 42.859375 272.363281 35.59375 281.242188 35.59375 C 290.121094 35.59375 293.964844 42.859375 294.113281 43.15625 C 294.574219 44.070312 295.476562 44.679688 296.496094 44.777344 C 297.519531 44.875 298.519531 44.429688 299.144531 43.621094 C 299.171875 43.582031 302.125 39.800781 306.976562 39.1875 C 310.167969 38.78125 313.574219 39.800781 317.125 42.222656 C 316 47.039062 312.230469 60.601562 303.632812 70.109375 L 258.851562 70.109375 C 250.253906 60.601562 246.484375 47.035156 245.359375 42.222656 Z M 147.695312 74.132812 C 147.695312 37.847656 172.632812 32.429688 187.5 32.429688 C 202.367188 32.429688 227.304688 37.847656 227.304688 74.132812 L 227.304688 101.214844 C 227.304688 113.671875 222.136719 125.453125 212.75 134.386719 C 205.066406 141.699219 195.152344 146.425781 187.5 146.425781 C 179.847656 146.425781 169.933594 141.699219 162.25 134.386719 C 152.863281 125.453125 147.695312 113.671875 147.695312 101.214844 Z M 182.371094 246.339844 C 162.351562 249.917969 144.375 254.867188 142.164062 255.484375 C 140.890625 255.621094 137.546875 255.59375 135.722656 254.007812 C 134.742188 253.152344 134.265625 251.863281 134.265625 250.066406 C 134.265625 247.753906 135.117188 246.0625 136.941406 244.738281 C 139.785156 242.679688 144.84375 241.679688 151.433594 241.679688 C 159.765625 241.679688 170.539062 243.277344 182.371094 246.339844 Z M 166.742188 188.898438 L 166.742188 153.1875 C 168.175781 151.410156 169.292969 149.476562 169.96875 147.328125 C 175.992188 150.59375 182.148438 152.367188 187.5 152.367188 C 192.851562 152.367188 199.007812 150.59375 205.03125 147.328125 C 205.707031 149.476562 206.824219 151.410156 208.257812 153.1875 L 208.257812 188.898438 Z M 164.636719 144.011719 C 163.941406 148.664062 160.050781 152.21875 154.804688 155.648438 L 154.804688 135.15625 C 157.808594 138.578125 161.148438 141.546875 164.636719 144.011719 Z M 125.085938 131.492188 L 148.863281 131.492188 L 148.863281 159.253906 C 148.308594 159.578125 147.746094 159.902344 147.183594 160.226562 C 141.421875 163.550781 135.511719 166.960938 130.863281 171.414062 C 127.304688 169.292969 125.085938 165.464844 125.085938 161.214844 Z M 98.210938 63.132812 L 119.140625 63.132812 L 119.140625 125.546875 L 95.496094 125.546875 Z M 89.417969 131.492188 L 89.417969 161.214844 C 89.417969 167.769531 84.085938 173.101562 77.53125 173.101562 C 70.976562 173.101562 65.640625 167.769531 65.640625 161.214844 L 65.640625 131.492188 Z M 68.203125 63.132812 L 60.058594 125.546875 L 36.636719 125.546875 L 50.203125 63.132812 Z M 6.199219 161.214844 L 6.199219 131.492188 L 29.976562 131.492188 L 29.976562 161.214844 C 29.976562 167.769531 24.644531 173.101562 18.089844 173.101562 C 11.53125 173.101562 6.199219 167.769531 6.199219 161.214844 Z M 77.601562 202.511719 L 77.601562 265.789062 L 10.253906 265.789062 L 10.253906 177.226562 C 12.621094 178.390625 15.277344 179.046875 18.089844 179.046875 C 24.285156 179.046875 29.75 175.867188 32.949219 171.054688 C 36.144531 175.867188 41.613281 179.046875 47.808594 179.046875 C 54.007812 179.046875 59.472656 175.867188 62.671875 171.054688 C 65.867188 175.867188 71.332031 179.046875 77.53125 179.046875 C 83.726562 179.046875 89.195312 175.867188 92.390625 171.054688 C 95.589844 175.867188 101.054688 179.046875 107.253906 179.046875 C 113.441406 179.046875 118.902344 175.875 122.097656 171.074219 C 123.359375 172.980469 124.988281 174.636719 126.914062 175.945312 C 126.84375 176.042969 126.769531 176.136719 126.699219 176.238281 C 124.648438 179.1875 121.476562 185.242188 118.101562 193.113281 L 87 193.113281 C 81.816406 193.113281 77.601562 197.328125 77.601562 202.511719 Z M 112.613281 275.554688 C 105.390625 261.734375 109.414062 239.007812 114.0625 222.378906 C 119.410156 203.234375 127.671875 185.25 131.582031 179.628906 C 135.6875 173.722656 143.042969 169.480469 150.152344 165.375 C 153.832031 163.253906 157.550781 161.105469 160.796875 158.699219 L 160.796875 191.25 L 145.722656 225.804688 L 145.722656 203.328125 C 145.722656 201.683594 144.390625 200.355469 142.75 200.355469 C 141.109375 200.355469 139.777344 201.683594 139.777344 203.328125 L 139.777344 237.046875 C 137.324219 237.726562 135.1875 238.667969 133.453125 239.925781 C 130.09375 242.355469 128.320312 245.863281 128.320312 250.066406 C 128.320312 254.507812 130.222656 257.097656 131.820312 258.488281 C 134.582031 260.867188 138.703125 261.53125 143.5625 261.265625 C 162.460938 255.910156 210.28125 244.851562 231.160156 249.566406 C 233.65625 250.132812 235.933594 251.148438 238.070312 252.433594 C 239.890625 253.808594 240.734375 255.476562 240.734375 257.6875 C 240.734375 265.382812 229.964844 272.945312 211.179688 278.4375 C 191.5 284.191406 164.492188 287.363281 135.128906 287.363281 C 124.132812 287.363281 116.765625 283.5 112.613281 275.554688 Z M 262.386719 275.554688 C 258.234375 283.5 250.867188 287.363281 239.871094 287.363281 C 229.132812 287.363281 218.589844 286.691406 208.359375 285.386719 C 230.984375 279.5625 246.679688 270.433594 246.679688 257.6875 C 246.679688 253.632812 244.941406 250.175781 241.65625 247.691406 C 239.964844 246.414062 237.816406 245.378906 235.222656 244.574219 L 235.222656 203.328125 C 235.222656 201.683594 233.890625 200.355469 232.25 200.355469 C 230.609375 200.355469 229.277344 201.683594 229.277344 203.328125 L 229.277344 225.804688 L 214.203125 191.25 L 214.203125 158.699219 C 217.449219 161.105469 221.171875 163.253906 224.847656 165.375 C 231.957031 169.480469 239.3125 173.722656 243.417969 179.628906 C 247.328125 185.25 255.589844 203.230469 260.9375 222.375 C 265.585938 239.007812 269.609375 261.734375 262.386719 275.554688 Z M 345.085938 251.535156 C 330.171875 260.996094 308.691406 265.789062 281.242188 265.789062 C 277.949219 265.789062 274.703125 265.71875 271.554688 265.574219 C 272.972656 255.960938 271.988281 244.765625 269.738281 233.574219 C 272.421875 234.828125 275.300781 235.640625 278.269531 235.964844 L 278.269531 246.808594 C 278.269531 248.449219 279.601562 249.78125 281.242188 249.78125 C 282.882812 249.78125 284.214844 248.449219 284.214844 246.808594 L 284.214844 235.96875 C 297.789062 234.484375 308.382812 222.957031 308.382812 208.992188 C 308.382812 193.316406 295.917969 187.535156 284.214844 182.8125 L 284.214844 139.667969 C 294.5 141.117188 302.441406 149.972656 302.441406 160.652344 C 302.441406 162.296875 303.769531 163.625 305.414062 163.625 C 307.054688 163.625 308.382812 162.296875 308.382812 160.652344 C 308.382812 146.691406 297.789062 135.164062 284.214844 133.679688 L 284.214844 122.839844 C 284.214844 121.199219 282.882812 119.867188 281.242188 119.867188 C 279.601562 119.867188 278.269531 121.199219 278.269531 122.839844 L 278.269531 133.679688 C 264.695312 135.164062 254.101562 146.691406 254.101562 160.652344 C 254.101562 176.332031 266.566406 182.113281 278.269531 186.835938 L 278.269531 229.980469 C 274.476562 229.445312 270.886719 227.890625 267.894531 225.460938 C 262.285156 203.234375 252.707031 182.578125 248.300781 176.238281 C 243.433594 169.242188 235.496094 164.660156 227.816406 160.226562 C 219.03125 155.15625 211.367188 150.730469 210.363281 144.011719 C 218.652344 138.15625 226.113281 129.445312 230.128906 118.597656 C 243.117188 104.324219 255.4375 95.78125 258.441406 93.789062 L 304.042969 93.789062 C 307.320312 95.964844 321.855469 106.042969 336.207031 122.976562 C 351.074219 140.523438 368.800781 169.261719 368.800781 206.542969 C 368.800781 226.417969 360.820312 241.558594 345.085938 251.535156 Z M 278.269531 180.414062 C 268.125 176.207031 260.042969 171.695312 260.042969 160.652344 C 260.042969 149.972656 267.984375 141.117188 278.269531 139.667969 Z M 284.214844 229.980469 L 284.214844 189.234375 C 294.359375 193.441406 302.441406 197.949219 302.441406 208.992188 C 302.441406 219.671875 294.5 228.527344 284.214844 229.980469 Z M 284.214844 229.980469 " fill-opacity="1" fill-rule="nonzero"/></g></svg>